<svg width="48" height="48" viewBox="0 0 48 48" fill="none" xmlns="http://www.w3.org/2000/svg">
<g clip-path="url(#clip0_215_48)">
<path d="M13.4388 33.4573C14.0784 33.4573 14.6874 33.4005 15.26 33.2722C15.8417 33.1461 16.3564 32.9437 16.7927 32.6461C17.2266 32.3598 17.5879 31.9667 17.8492 31.4691C18.1117 30.9738 18.2378 30.3307 18.2378 29.5547C18.2378 28.0334 17.8084 26.9518 16.9574 26.2963C16.103 25.6487 14.9658 25.3272 13.5672 25.3272H6.49929V33.4573H13.4388ZM13.0787 20.8895C14.2295 20.8895 15.1839 20.6167 15.9394 20.0623C16.687 19.5158 17.0482 18.6149 17.0482 17.3766C17.0482 16.6903 16.929 16.1223 16.687 15.6815C16.4359 15.2407 16.103 14.8964 15.6849 14.6543C15.2691 14.4033 14.7987 14.2306 14.2546 14.1363C13.7182 14.0317 13.1582 13.9909 12.5822 13.9909H6.49929V20.8895H13.0787ZM13.9194 8.96118C15.3316 8.96118 16.6063 9.08278 17.7709 9.33618C18.9297 9.58153 19.917 9.99168 20.7532 10.5541C21.5758 11.1165 22.2199 11.8641 22.6812 12.8059C23.13 13.7341 23.3561 14.8964 23.3561 16.2699C23.3561 17.756 23.0197 18.9978 22.3438 19.9908C21.6644 20.9814 20.6657 21.7938 19.333 22.4255C21.1474 22.9481 22.4949 23.8672 23.3868 25.175C24.2832 26.4917 24.7228 28.0664 24.7228 29.9137C24.7228 31.4111 24.4366 32.6995 23.8628 33.7845C23.2845 34.882 22.4972 35.7716 21.5269 36.4579C20.5487 37.1497 19.4273 37.6587 18.1685 37.9894C16.9245 38.3188 15.6327 38.4859 14.3079 38.4859H-0.000488281V8.96118H13.9194Z" fill="white"/>
<path d="M40.7356 22.1266C40.0369 21.3551 38.8564 20.9371 37.4147 20.9371C36.4763 20.9371 35.7003 21.0949 35.0776 21.4165C34.4687 21.7346 33.9711 22.1288 33.5905 22.5947C33.211 23.0672 32.9543 23.5672 32.8031 24.1011C32.6531 24.6215 32.5623 25.093 32.5361 25.51H42.0887C41.949 24.0125 41.4366 22.9048 40.7356 22.1266ZM33.9881 33.3595C34.8686 34.2184 36.1399 34.6502 37.7874 34.6502C38.9711 34.6502 39.9937 34.3514 40.8526 33.7537C41.7036 33.1573 42.2216 32.5199 42.4216 31.8587H47.5932C46.7616 34.432 45.5017 36.2691 43.7804 37.3757C42.0796 38.4857 40.0074 39.039 37.5908 39.039C35.907 39.039 34.3915 38.7663 33.0304 38.2301C31.6704 37.6859 30.5343 36.9246 29.5777 35.9306C28.646 34.933 27.9223 33.7537 27.4065 32.3687C26.8964 30.9906 26.6396 29.4648 26.6396 27.8117C26.6396 26.2132 26.9066 24.7203 27.4292 23.34C27.961 21.955 28.6994 20.7598 29.6685 19.7578C30.64 18.75 31.7908 17.9547 33.1315 17.373C34.4732 16.7947 35.9525 16.5039 37.5908 16.5039C39.3995 16.5039 40.9821 16.8515 42.3409 17.5605C43.693 18.2603 44.803 19.2078 45.6744 20.394C46.5446 21.5778 47.1661 22.9321 47.5535 24.4511C47.9375 25.9678 48.0727 27.5516 47.9625 29.2103H32.5361C32.5361 30.9009 33.1065 32.5006 33.9881 33.3595Z" fill="white"/>
<path d="M43.302 10.9426H31.334V13.8556H43.302V10.9426Z" fill="white"/>
</g>
<defs>
<clipPath id="clip0_215_48">
<rect width="48" height="48" fill="white"/>
</clipPath>
</defs>
</svg>
