<svg width="48" height="48" viewBox="0 0 48 48" fill="none" xmlns="http://www.w3.org/2000/svg">
<path d="M13.7636 16.7502H5.72363V40.9342H13.7636V16.7502Z" fill="white"/>
<path d="M9.798 5.08887C7.04728 5.08887 5.25 6.8973 5.25 9.26759C5.25 11.5881 6.99262 13.4464 9.69159 13.4464H9.74353C12.5469 13.4464 14.2919 11.5881 14.2919 9.26759C14.2399 6.8973 12.5471 5.08887 9.798 5.08887Z" fill="white"/>
<path d="M33.495 16.1814C29.2303 16.1814 27.32 18.5267 26.2503 20.1741V16.7501H18.2124C18.319 19.0186 18.2124 40.9339 18.2124 40.9339H26.2502V27.4279C26.2502 26.705 26.3022 25.9823 26.5153 25.4656C27.0954 24.0219 28.4189 22.5264 30.6396 22.5264C33.547 22.5264 34.7117 24.7449 34.7117 27.9946V40.9339H42.75V27.0655C42.75 19.637 38.7839 16.1814 33.495 16.1814Z" fill="white"/>
</svg>
