<svg width="48" height="48" viewBox="0 0 48 48" fill="none" xmlns="http://www.w3.org/2000/svg">
<path d="M15.0951 43.5012C33.2083 43.5012 43.1155 28.4946 43.1155 15.4807C43.1155 15.0546 43.1155 14.6302 43.0868 14.2078C45.0141 12.8137 46.6778 11.0876 48 9.11025C46.2027 9.90665 44.2959 10.4288 42.3437 10.6597C44.3991 9.42928 45.9383 7.49259 46.6732 5.21259C44.7402 6.35962 42.6251 7.16812 40.4198 7.60303C38.5578 5.62294 35.9572 4.49878 33.2393 4.49878C27.8316 4.49878 23.3819 8.94853 23.3819 14.356C23.3819 15.1062 23.4676 15.8541 23.6371 16.5847C15.7229 16.1881 8.33897 12.4447 3.34078 6.2955C0.741656 10.7698 2.0865 16.5682 6.38972 19.4417C4.82269 19.3953 3.28931 18.9725 1.92 18.2091V18.3338C1.92131 23.0039 5.24316 27.063 9.82078 27.9877C8.37103 28.383 6.84956 28.4407 5.37413 28.1566C6.66103 32.1583 10.372 34.9167 14.5748 34.9957C11.0882 37.7357 6.77878 39.2241 2.34431 39.2197C1.56075 39.2182 0.777938 39.1707 0 39.0775C4.50319 41.9674 9.74438 43.5007 15.0951 43.4935" fill="white"/>
</svg>
